<svg style="height: 512px; width: 512px;" xmlns="http://www.w3.org/2000/svg" viewBox="0 0 512 512"><g class="" style="" transform="translate(0,0)"><g><path d="M271.688 18.076C302.686 40.636 331.162 65.256 357.538 92.246C302.073 75.064 246.163 67.728 191.094 67.716C322.248 124.614 423.376 213.822 492.447 370.238L492.447 304.844C448.872 222.158 384.757 149.674 315.541 114.424C388.585 135.42 446.776 179.83 490 223.034C441.175 96.127 375.416 38.693 271.688 18.075Z" class="" fill="#113aa4" fill-opacity="1"></path><path d="M66.692 20.994C52.09 133.23 55.57 248.46 88.887 360.31C55.131 320.21 30.037 275.98 17.637 230.074C18.84 359.462 93.562 459.54 211.672 491.774C157.077 423.268 102.822 326.319 100.609 201.187C128.981 319.64 230.454 428.465 357.153 495.217L480.18 495.217C248.53 386.68 129.253 227.084 66.693 20.994Z" class="" fill="#4272ed" fill-opacity="1"></path><path d="M86.497 36.307L242.632 216.527C210.345 199.074 177.265 182.147 144.562 165.209C230.409 294.634 331.202 408.951 491.672 460.606C427.147 400.236 395.932 358.592 363.915 310.288C315.22 295.734 262.885 272.62 219.405 233.832C263.985 260.62 342.513 276.52 405.382 282.174C325.656 154.529 212.482 95.604 86.497 36.304Z" class="selected" fill="#fb2662" fill-opacity="1"></path></g></g></svg>